<svg xmlns="http://www.w3.org/2000/svg" xmlns:xlink="http://www.w3.org/1999/xlink" width="500" zoomAndPan="magnify" viewBox="0 0 375 374.999991" height="500" preserveAspectRatio="xMidYMid meet" version="1.0"><defs><g/><clipPath id="5bab0a7639"><path d="M 40.242188 8 L 334.992188 8 L 334.992188 259.183594 L 40.242188 259.183594 Z M 40.242188 8 " clip-rule="nonzero"/></clipPath></defs><g clip-path="url(#5bab0a7639)"><path fill="#ffffff" d="M 261.304688 178.355469 C 261.304688 190.558594 251.414062 200.4375 239.191406 200.4375 C 227 200.4375 217.109375 190.558594 217.109375 178.355469 C 217.109375 166.152344 227 156.273438 239.191406 156.273438 C 251.414062 156.273438 261.304688 166.152344 261.304688 178.355469 Z M 158.152344 178.355469 C 158.152344 190.558594 148.234375 200.4375 136.039062 200.4375 C 123.820312 200.4375 113.929688 190.558594 113.929688 178.355469 C 113.929688 166.152344 123.820312 156.273438 136.039062 156.273438 C 148.234375 156.273438 158.152344 166.152344 158.152344 178.355469 Z M 290.796875 215.152344 C 290.769531 231.40625 277.582031 244.578125 261.304688 244.578125 L 113.929688 244.578125 C 97.652344 244.578125 84.464844 231.40625 84.464844 215.152344 L 84.464844 141.558594 C 84.464844 125.304688 97.652344 112.132812 113.929688 112.109375 L 261.304688 112.109375 C 277.582031 112.132812 290.769531 125.304688 290.796875 141.558594 Z M 312.878906 156.273438 L 305.5 156.273438 L 305.5 141.558594 C 305.5 117.175781 285.71875 97.394531 261.304688 97.394531 L 202.347656 97.394531 L 202.347656 63.890625 C 216.453125 55.765625 221.292969 37.757812 213.128906 23.671875 C 204.992188 9.585938 186.988281 4.777344 172.882812 12.90625 C 158.78125 21.03125 153.9375 39.039062 162.101562 53.097656 C 164.667969 57.59375 168.410156 61.304688 172.882812 63.890625 L 172.882812 97.394531 L 113.929688 97.394531 C 89.515625 97.394531 69.707031 117.175781 69.707031 141.558594 L 69.707031 156.273438 L 62.351562 156.273438 C 50.132812 156.273438 40.242188 166.152344 40.242188 178.355469 C 40.242188 190.558594 50.132812 200.4375 62.351562 200.4375 L 69.707031 200.4375 L 69.707031 215.152344 C 69.707031 239.535156 89.515625 259.316406 113.929688 259.316406 L 261.304688 259.316406 C 285.71875 259.316406 305.5 239.535156 305.5 215.152344 L 305.5 200.4375 L 312.878906 200.4375 C 325.101562 200.4375 334.992188 190.558594 334.992188 178.355469 C 334.992188 166.152344 325.101562 156.273438 312.878906 156.273438 " fill-opacity="1" fill-rule="nonzero"/></g><g fill="#ffffff" fill-opacity="1"><g transform="translate(74.603936, 353.733639)"><g><path d="M 37.609375 -14.640625 L 15.53125 -14.640625 L 10.265625 0 L 1.375 0 L 22.40625 -53.953125 L 31.875 -53.953125 L 52.34375 0 L 42.953125 0 Z M 34.9375 -21.921875 L 26.53125 -45.0625 L 18.203125 -21.921875 Z M 34.9375 -21.921875 "/></g></g></g><g fill="#ffffff" fill-opacity="1"><g transform="translate(128.317899, 353.733639)"><g><path d="M 5.984375 -36.890625 C 7.492188 -37.804688 10.054688 -38.800781 13.671875 -39.875 C 17.285156 -40.957031 20.867188 -41.5 24.421875 -41.5 C 26.585938 -41.5 28.421875 -41.148438 29.921875 -40.453125 L 29.921875 -33.65625 C 28.421875 -33.863281 26.617188 -33.96875 24.515625 -33.96875 C 20.953125 -33.96875 17.609375 -33.703125 14.484375 -33.171875 L 14.484375 0 L 5.984375 0 Z M 5.984375 -36.890625 "/></g></g></g><g fill="#ffffff" fill-opacity="1"><g transform="translate(160.594814, 353.733639)"><g><path d="M 45.21875 -40.609375 L 28.0625 0 L 19.578125 0 L 2.5 -40.609375 L 11.640625 -40.609375 L 24.515625 -9.296875 L 36.40625 -40.609375 Z M 45.21875 -40.609375 "/></g></g></g><g fill="#ffffff" fill-opacity="1"><g transform="translate(208.241692, 353.733639)"><g><path d="M 22.734375 -41.578125 C 29.035156 -41.578125 33.65625 -39.539062 36.59375 -35.46875 C 39.539062 -31.394531 40.988281 -25.691406 40.9375 -18.359375 L 12.453125 -18.359375 C 12.722656 -14.367188 13.894531 -11.332031 15.96875 -9.25 C 18.050781 -7.175781 21.003906 -6.140625 24.828125 -6.140625 C 27.304688 -6.140625 29.675781 -6.453125 31.9375 -7.078125 C 34.207031 -7.703125 36.207031 -8.5 37.9375 -9.46875 L 37.9375 -1.53125 C 33.726562 0.300781 28.898438 1.21875 23.453125 1.21875 C 17.359375 1.21875 12.570312 -0.628906 9.09375 -4.328125 C 5.613281 -8.023438 3.875 -13.269531 3.875 -20.0625 C 3.875 -27.019531 5.519531 -32.34375 8.8125 -36.03125 C 12.101562 -39.726562 16.742188 -41.578125 22.734375 -41.578125 Z M 22.484375 -34.625 C 19.628906 -34.625 17.390625 -33.867188 15.765625 -32.359375 C 14.148438 -30.847656 13.101562 -28.285156 12.625 -24.671875 L 32.28125 -24.671875 C 31.894531 -28.117188 30.921875 -30.640625 29.359375 -32.234375 C 27.796875 -33.828125 25.503906 -34.625 22.484375 -34.625 Z M 22.484375 -34.625 "/></g></g></g><g fill="#ffffff" fill-opacity="1"><g transform="translate(252.976369, 353.733639)"><g><path d="M 5.984375 -37.296875 C 8.410156 -38.535156 11.363281 -39.546875 14.84375 -40.328125 C 18.320312 -41.109375 21.648438 -41.5 24.828125 -41.5 C 30.492188 -41.5 34.675781 -40.3125 37.375 -37.9375 C 40.070312 -35.5625 41.421875 -31.867188 41.421875 -26.859375 L 41.421875 0 L 32.921875 0 L 32.921875 -25.71875 C 32.921875 -31.382812 29.710938 -34.21875 23.296875 -34.21875 C 20.222656 -34.21875 17.285156 -33.707031 14.484375 -32.6875 L 14.484375 0 L 5.984375 0 Z M 5.984375 -37.296875 "/></g></g></g></svg>